<svg width="16" height="13" viewBox="0 0 16 13" fill="none" xmlns="http://www.w3.org/2000/svg">
<rect x="6" y="3" width="2" height="3" fill="#FFE297"/>
<rect y="6" width="1" height="1" fill="#FFE297"/>
<rect x="1" y="7" width="2" height="1" fill="#FFE297"/>
<rect x="3" y="8" width="2" height="1" fill="#FFE297"/>
<rect x="5" y="9" width="2" height="1" fill="#FFE297"/>
<rect x="5" y="1" width="2" height="1" fill="#FFE297"/>
<rect x="7" width="2" height="1" fill="#FFE297"/>
<rect x="3" y="2" width="2" height="1" fill="#FFE297"/>
<rect x="3" y="2" width="2" height="1" fill="#FFE297"/>
<rect x="4" y="4" width="2" height="1" fill="#FFE297"/>
<rect x="1" y="3" width="2" height="1" fill="#FFE297"/>
<rect y="4" width="1" height="1" fill="#FFE297"/>
<rect x="1" y="5" width="2" height="1" fill="#FFE297"/>
<rect x="3" y="6" width="2" height="1" fill="#FFE297"/>
<rect x="5" y="7" width="2" height="1" fill="#FFE297"/>
<rect y="6" width="1" height="1" fill="#FFE297"/>
<rect x="1" y="7" width="2" height="1" fill="#FFE297"/>
<rect x="3" y="8" width="2" height="1" fill="#FFE297"/>
<rect x="5" y="9" width="2" height="1" fill="#FFE297"/>
<rect y="8" width="1" height="1" fill="#FFE297"/>
<rect x="1" y="9" width="2" height="1" fill="#FFE297"/>
<rect x="3" y="10" width="2" height="1" fill="#FFE297"/>
<rect x="5" y="11" width="2" height="1" fill="#FFE297"/>
<rect x="7" y="8" width="2" height="1" fill="#FFE297"/>
<rect x="7" y="10" width="2" height="1" fill="#FFE297"/>
<rect x="7" y="12" width="2" height="1" fill="#FFE297"/>
<rect width="2" height="3" transform="matrix(-1 0 0 1 10 3)" fill="#FFE297"/>
<rect width="1" height="1" transform="matrix(-1 0 0 1 16 6)" fill="#FFE297"/>
<rect width="2" height="1" transform="matrix(-1 0 0 1 15 7)" fill="#FFE297"/>
<rect width="2" height="1" transform="matrix(-1 0 0 1 13 8)" fill="#FFE297"/>
<rect width="2" height="1" transform="matrix(-1 0 0 1 11 9)" fill="#FFE297"/>
<rect width="2" height="1" transform="matrix(-1 0 0 1 11 1)" fill="#FFE297"/>
<rect width="2" height="1" transform="matrix(-1 0 0 1 9 0)" fill="#FFE297"/>
<rect width="2" height="1" transform="matrix(-1 0 0 1 13 2)" fill="#FFE297"/>
<rect width="2" height="1" transform="matrix(-1 0 0 1 13 2)" fill="#FFE297"/>
<rect width="2" height="1" transform="matrix(-1 0 0 1 12 4)" fill="#FFE297"/>
<rect width="2" height="1" transform="matrix(-1 0 0 1 15 3)" fill="#FFE297"/>
<rect width="1" height="1" transform="matrix(-1 0 0 1 16 4)" fill="#FFE297"/>
<rect width="2" height="1" transform="matrix(-1 0 0 1 15 5)" fill="#FFE297"/>
<rect width="2" height="1" transform="matrix(-1 0 0 1 13 6)" fill="#FFE297"/>
<rect width="2" height="1" transform="matrix(-1 0 0 1 11 7)" fill="#FFE297"/>
<rect width="1" height="1" transform="matrix(-1 0 0 1 16 6)" fill="#FFE297"/>
<rect width="2" height="1" transform="matrix(-1 0 0 1 15 7)" fill="#FFE297"/>
<rect width="2" height="1" transform="matrix(-1 0 0 1 13 8)" fill="#FFE297"/>
<rect width="2" height="1" transform="matrix(-1 0 0 1 11 9)" fill="#FFE297"/>
<rect width="1" height="1" transform="matrix(-1 0 0 1 16 8)" fill="#FFE297"/>
<rect width="2" height="1" transform="matrix(-1 0 0 1 15 9)" fill="#FFE297"/>
<rect width="2" height="1" transform="matrix(-1 0 0 1 13 10)" fill="#FFE297"/>
<rect width="2" height="1" transform="matrix(-1 0 0 1 11 11)" fill="#FFE297"/>
<rect width="2" height="1" transform="matrix(-1 0 0 1 9 8)" fill="#FFE297"/>
<rect width="2" height="1" transform="matrix(-1 0 0 1 9 10)" fill="#FFE297"/>
<rect width="2" height="1" transform="matrix(-1 0 0 1 9 12)" fill="#FFE297"/>
</svg>
